<svg width="120" height="40" viewBox="0 0 120 40" fill="none" xmlns="http://www.w3.org/2000/svg">
  <rect width="120" height="40" rx="4" fill="white"/>
  <path d="M20 30H16V10H20V30Z" fill="black"/>
  <path d="M30 30H26V10H30V30Z" fill="black"/>
  <path d="M40 30H36V10H40V30Z" fill="black"/>
  <path d="M50 30H46V10H50V30Z" fill="black"/>
  <path d="M60 30H56V10H60V30Z" fill="black"/>
  <path d="M70 30H66V10H70V30Z" fill="black"/>
  <path d="M80 30H76V10H80V30Z" fill="black"/>
  <path d="M90 30H86V10H90V30Z" fill="black"/>
  <path d="M100 30H96V10H100V30Z" fill="black"/>
  <path d="M110 30H106V10H110V30Z" fill="black"/>
</svg> 